<svg width="118" height="158" viewBox="0 0 188 158" fill="none" xmlns="http://www.w3.org/2000/svg" id="logo">
<path d="M33.9967 51.153C42.8784 26.4914 71.0876 13.6762 95.7053 23.1194L113.509 29.949C137.099 38.9978 148.277 65.0623 138.515 88.2572L133.255 100.757C122.171 127.094 89.4592 137.756 65.09 122.974L49.082 113.265C31.0544 102.33 23.3834 80.6226 30.5322 60.7727L33.9967 51.153Z" stroke="white" stroke-width="0.614786"/>
<path d="M36.8697 57.3102C45.7514 32.6486 73.9607 19.8334 98.5784 29.2767L116.382 36.1062C139.972 45.1551 151.15 71.2195 141.388 94.4145L136.128 106.914C125.044 133.251 92.3323 143.913 67.963 129.132L51.955 119.422C33.9275 108.487 26.2564 86.7798 33.4052 66.9299L36.8697 57.3102Z" stroke="white" stroke-width="0.614786"/>
<path d="M36.8697 53.1508C45.7514 28.4892 73.9607 15.674 98.5784 25.1172L116.382 31.9468C139.972 40.9956 151.15 67.0601 141.388 90.255L136.128 102.755C125.044 129.092 92.3323 139.754 67.963 124.972L51.955 115.263C33.9275 104.328 26.2564 82.6204 33.4052 62.7705L36.8697 53.1508Z" stroke="white" stroke-width="0.614786"/>
<path d="M33.3795 57.3102C42.2612 32.6486 70.4705 19.8334 95.0881 29.2767L112.892 36.1062C136.482 45.1551 147.66 71.2195 137.898 94.4145L132.637 106.914C121.554 133.251 88.842 143.913 64.4728 129.132L48.4648 119.422C30.4372 108.487 22.7662 86.7798 29.915 66.9299L33.3795 57.3102Z" stroke="white" stroke-width="0.614786"/>
<path d="M31.6334 57.3102C40.5151 32.6486 68.7244 19.8334 93.342 29.2767L111.146 36.1062C134.736 45.1551 145.914 71.2195 136.152 94.4145L130.891 106.914C119.808 133.251 87.0959 143.913 62.7267 129.132L46.7187 119.422C28.6911 108.487 21.0201 86.7798 28.1689 66.9299L31.6334 57.3102Z" stroke="white" stroke-width="0.614786"/>
<path d="M52.1967 100.759H49.9396V90.8838C50.4897 90.8838 52.1967 90.8556 52.9585 90.8556C55.9633 90.8556 56.9508 92.4215 56.9508 94.1284C56.9508 95.8918 55.5824 97.4436 53.2971 97.4436C53.0855 97.4436 52.5494 97.4436 52.1967 97.4013V100.759ZM53.1842 92.9716C52.888 92.9716 52.6622 92.9858 52.1967 92.9999V95.257C52.5212 95.2993 52.9021 95.3275 53.2265 95.3275C53.819 95.3275 54.5526 95.0736 54.5526 94.1143C54.5526 93.2397 53.9883 92.9716 53.1842 92.9716ZM59.6305 100.759H57.3734V90.8838C57.9235 90.8838 60.4487 90.8556 60.7309 90.8556C63.4253 90.8556 64.3846 92.1958 64.3846 94.0156C64.3846 95.8495 63.256 96.5972 62.72 96.8652L65.5978 100.759H62.861L60.4628 97.3025H59.6305V100.759ZM60.618 92.9716C60.2794 92.9716 60.096 92.9858 59.6305 92.9999V95.1865H60.4487C61.3093 95.1865 61.9864 94.8761 61.9864 94.0438C61.9864 93.4936 61.7043 92.9716 60.618 92.9716ZM64.3222 95.8213C64.3222 92.9575 66.4242 90.7145 69.5701 90.7145C72.5749 90.7145 74.818 92.6754 74.818 95.8213C74.818 98.812 72.5749 100.928 69.5701 100.928C66.5653 100.928 64.3222 98.9672 64.3222 95.8213ZM66.7205 95.8213C66.7205 97.5141 67.9901 98.812 69.5701 98.812C71.4463 98.812 72.4197 97.4859 72.4197 95.8213C72.4197 94.0156 71.1642 92.8306 69.5701 92.8306C67.9337 92.8306 66.7205 94.0156 66.7205 95.8213ZM75.2443 100.759V90.8838H75.4418C75.9637 90.8838 77.713 90.8415 78.3619 90.8415C82.3119 90.8415 83.906 93.1127 83.906 95.7366C83.906 98.5016 82.0157 100.787 78.2491 100.787C77.7271 100.787 76.4293 100.759 75.4841 100.759H75.2443ZM78.3337 92.9575C78.0939 92.9575 77.7835 92.9575 77.5014 92.9999V98.6427C77.7976 98.6709 77.9951 98.6709 78.3196 98.6709C80.2664 98.6709 81.5078 97.6129 81.5078 95.7366C81.5078 93.9168 80.1676 92.9575 78.3337 92.9575ZM92.5275 90.8838V96.6818C92.5275 99.7008 90.6089 100.928 88.4928 100.928C85.9536 100.928 84.1902 99.475 84.1902 96.5831V90.8838H86.4473V96.1034C86.4473 97.6411 86.9128 98.812 88.4928 98.812C89.8612 98.812 90.2703 97.8104 90.2703 96.2304V90.8838H92.5275ZM100.343 98.0925L101.203 99.7854C100.611 100.448 99.3268 100.928 97.9866 100.928C94.9254 100.928 92.8093 98.8966 92.8093 95.8213C92.8093 92.9858 94.5727 90.7145 97.9725 90.7145C99.2845 90.7145 100.399 91.1659 100.991 91.7443L99.9898 93.4372C99.4538 93.1127 98.9036 92.8306 97.9725 92.8306C96.4489 92.8306 95.2075 93.8745 95.2075 95.8213C95.2075 97.5706 96.4207 98.812 98.1982 98.812C98.9036 98.812 99.6795 98.5863 100.343 98.0925ZM100.219 92.9999V90.8838H108.402V92.9999H105.439V100.759H103.182V92.9999H100.219ZM108.537 100.759V90.8838H110.794V100.759H108.537ZM111.363 95.8213C111.363 92.9575 113.465 90.7145 116.611 90.7145C119.616 90.7145 121.859 92.6754 121.859 95.8213C121.859 98.812 119.616 100.928 116.611 100.928C113.607 100.928 111.363 98.9672 111.363 95.8213ZM113.762 95.8213C113.762 97.5141 115.031 98.812 116.611 98.812C118.488 98.812 119.461 97.4859 119.461 95.8213C119.461 94.0156 118.205 92.8306 116.611 92.8306C114.975 92.8306 113.762 94.0156 113.762 95.8213ZM130.891 100.759H129.085L124.402 94.8338V100.759H122.286V90.8838H124.091L128.775 96.837V90.8838H130.891V100.759Z" fill="white"/>
<path d="M68.4199 83.3125H64.8085L55.4414 71.4625V83.3125H51.2092V63.5625H54.8206L64.1878 75.4689V63.5625H68.4199V83.3125ZM70.9603 83.3125V63.5625H75.4746V83.3125H70.9603ZM91.6795 77.98L93.4006 81.3657C92.2156 82.6918 89.6481 83.6511 86.9677 83.6511C80.8452 83.6511 76.6131 79.5882 76.6131 73.4375C76.6131 67.7664 80.1399 63.2239 86.9395 63.2239C89.5634 63.2239 91.7924 64.1268 92.9774 65.2836L90.9742 68.6693C89.902 68.0204 88.8017 67.4561 86.9395 67.4561C83.8924 67.4561 81.4095 69.5439 81.4095 73.4375C81.4095 76.9361 83.8359 79.4189 87.3909 79.4189C88.8017 79.4189 90.3534 78.9675 91.6795 77.98ZM93.6904 83.3125V63.5625H105.399V67.7946H98.2047V71.265H104.553V75.4971H98.2047V79.0804H105.682V83.3125H93.6904Z" fill="white"/>
<path d="M118.923 84.0178V64.2678H130.35V68.5H123.437V72.6757H129.503V76.9078H123.437V84.0178H118.923ZM131.483 84.0178V64.2678H135.997V84.0178H131.483ZM138.546 84.0178V64.2678H143.061V79.7857H151.102V84.0178H138.546ZM151.099 84.0178V64.2678H155.642L161.736 72.591L167.492 64.2678H171.752V84.0178H167.238V71.4343L161.736 79.1368H161.087L155.614 71.5189V84.0178H151.099ZM181.264 78.6007C181.264 75.6382 173.025 76.005 173.025 69.6285C173.025 66.5814 175.451 63.9293 179.401 63.9293C181.941 63.9293 183.972 64.7757 185.214 66.1017L182.787 69.4875C181.913 68.6693 181.264 68.1614 179.796 68.1614C178.555 68.1614 177.821 68.7257 177.821 69.6285C177.821 72.9014 186.06 72.1114 186.06 78.5443C186.06 81.9864 183.098 84.3564 179.289 84.3564C176.636 84.3564 173.561 83.2278 172.602 81.1118L175.169 78.0364C176.298 79.4753 178.019 80.1243 179.401 80.1243C180.586 80.1243 181.264 79.5318 181.264 78.6007Z" fill="white"/>
</svg>
